<?xml version="1.0" standalone="no"?>
<!DOCTYPE svg PUBLIC "-//W3C//DTD SVG 20010904//EN"
 "http://www.w3.org/TR/2001/REC-SVG-20010904/DTD/svg10.dtd">
<svg version="1.0" xmlns="http://www.w3.org/2000/svg"
 width="92.000000pt" height="94.000000pt" viewBox="0 0 92.000000 94.000000"
 preserveAspectRatio="xMidYMid meet">

<g transform="translate(0.000000,94.000000) scale(0.100000,-0.100000)"
fill="red" stroke="none">
<path d="M442 879 c-49 -25 -71 -54 -172 -234 -40 -71 -96 -163 -123 -203 -63
-94 -87 -148 -87 -195 -1 -139 154 -214 257 -124 47 41 67 85 98 213 41 167
82 230 165 255 33 10 44 8 93 -14 39 -18 61 -35 74 -59 28 -53 28 -9 -1 106
-41 159 -79 219 -161 257 -53 24 -91 24 -143 -2z"/>
<path d="M791 430 c1 -8 5 -26 9 -40 l8 -25 1 25 c0 14 -4 32 -9 40 -9 13 -10
13 -9 0z"/>
<path d="M777 192 c-23 -25 -21 -68 3 -92 27 -27 56 -25 85 5 29 28 31 51 9
83 -19 28 -74 30 -97 4z"/>
</g>
</svg>
